<?xml version="1.0" encoding="UTF-8" standalone="no"?>
<!-- Created with Inkscape (http://www.inkscape.org/) -->

<svg
   xmlns:dc="http://purl.org/dc/elements/1.1/"
   xmlns:cc="http://creativecommons.org/ns#"
   xmlns:rdf="http://www.w3.org/1999/02/22-rdf-syntax-ns#"
   xmlns:svg="http://www.w3.org/2000/svg"
   xmlns="http://www.w3.org/2000/svg"
   xmlns:sodipodi="http://sodipodi.sourceforge.net/DTD/sodipodi-0.dtd"
   xmlns:inkscape="http://www.inkscape.org/namespaces/inkscape"
   width="726.89172mm"
   height="79.119728mm"
   viewBox="0 0 726.89172 79.119728"
   version="1.1"
   id="svg8"
   inkscape:version="0.92.4 (f8dce91, 2019-08-02)"
   sodipodi:docname="drawing.svg">
  <defs
     id="defs2" />
  <sodipodi:namedview
     id="base"
     pagecolor="#ffffff"
     bordercolor="#666666"
     borderopacity="1.0"
     inkscape:pageopacity="0.0"
     inkscape:pageshadow="2"
     inkscape:zoom="0.35"
     inkscape:cx="1373.1724"
     inkscape:cy="-91.185204"
     inkscape:document-units="mm"
     inkscape:current-layer="layer1"
     showgrid="false"
     inkscape:window-width="1920"
     inkscape:window-height="968"
     inkscape:window-x="0"
     inkscape:window-y="27"
     inkscape:window-maximized="1" />
  <metadata
     id="metadata5">
    <rdf:RDF>
      <cc:Work
         rdf:about="">
        <dc:format>image/svg+xml</dc:format>
        <dc:type
           rdf:resource="http://purl.org/dc/dcmitype/StillImage" />
        <dc:title></dc:title>
      </cc:Work>
    </rdf:RDF>
  </metadata>
  <g
     inkscape:label="Layer 1"
     inkscape:groupmode="layer"
     id="layer1"
     transform="translate(255.97329,-49.367281)">
    <g
       aria-label="RSVP EVENT"
       style="font-style:normal;font-weight:normal;font-size:113.63058472px;line-height:1.25;font-family:sans-serif;letter-spacing:0px;word-spacing:0px;fill:#ffffff;fill-opacity:1;stroke:none;stroke-width:2.84076452"
       id="text3715">
      <path
         d="m -227.06629,58.577573 v 27.741841 q 0.44386,0 1.27612,0.05548 0.83226,0.05548 1.33161,0.05548 8.1561,0 12.26189,-3.60644 4.10579,-3.661923 4.10579,-10.819318 0,-6.214173 -3.7174,-9.820612 -3.71741,-3.606439 -10.04255,-3.606439 z m -28.907,-7.712233 h 41.72373 q 13.14963,0 20.02961,4.827081 6.87997,4.82708 6.87997,14.037372 0,8.211585 -5.38191,13.094149 -5.32644,4.882565 -15.97931,6.32514 3.66193,0.721288 6.43611,1.997413 2.77419,1.220641 4.71611,2.996119 4.38322,3.939341 8.21159,14.259306 0.88774,2.27483 1.33161,3.49547 2.05289,5.1045 4.7716,6.8245 2.77418,1.66451 8.54448,1.66451 h 1.33161 v 6.71352 q -4.60514,0.3329 -8.489,0.49936 -3.82838,0.16645 -6.93546,0.16645 -5.49289,0 -9.65416,-1.49806 -4.16128,-1.49806 -6.8245,-4.38321 -2.7187,-2.94064 -4.99353,-11.42964 -0.99871,-3.60644 -1.60903,-5.38192 -2.10838,-6.103206 -5.32643,-8.599971 -3.21805,-2.55225 -8.76642,-2.55225 h -1.10967 v 23.968951 l 1.77547,2.16386 7.4903,0.44387 v 6.60256 h -38.17277 v -6.60256 l 7.26836,-0.44387 1.83096,-2.16386 V 59.576279 l -1.83096,-1.664511 -7.26836,-0.443869 z"
         style="font-style:normal;font-variant:normal;font-weight:normal;font-stretch:normal;font-family:'Charter BT';-inkscape-font-specification:'Charter BT';fill:#ffffff;stroke-width:2.84076452"
         id="path3717"
         inkscape:connector-curvature="0" />
      <path
         d="m -168.75294,124.38122 v -21.02831 h 10.5419 l 2.60773,13.98188 1.60903,1.72 q 2.16386,0.3329 4.27224,0.49935 2.16386,0.16645 4.38321,0.16645 6.54708,0 10.43093,-2.82967 3.88386,-2.88515 3.88386,-7.65674 0,-1.55355 -0.55483,-2.94064 -0.49936,-1.44258 -1.49806,-2.60773 -2.66322,-2.94064 -11.26319,-6.269659 -4.21676,-1.553543 -6.49159,-2.607733 -8.82191,-3.939341 -12.9277,-9.099324 -4.10579,-5.215466 -4.10579,-12.483829 0,-10.763835 8.04513,-17.310909 8.04513,-6.547075 21.52767,-6.547075 5.65934,0 11.81802,1.165157 6.15869,1.165158 12.48383,3.384505 v 19.197355 h -10.5419 l -2.27483,-12.594797 -1.38709,-1.387092 q -1.55354,-0.499353 -3.27354,-0.721288 -1.66451,-0.277418 -3.55095,-0.277418 -6.43611,0 -10.09803,2.718701 -3.66193,2.7187 -3.66193,7.37933 0,6.380623 14.03738,12.261894 1.60902,0.665804 2.44128,1.05419 12.53931,5.27095 16.58962,10.09803 4.10579,4.771597 4.10579,12.372862 0,11.15222 -8.76642,17.81026 -8.76642,6.65804 -23.63605,6.65804 -4.99353,0 -10.98577,-0.9987 -5.93675,-0.99871 -13.75995,-3.10709 z"
         style="font-style:normal;font-variant:normal;font-weight:normal;font-stretch:normal;font-family:'Charter BT';-inkscape-font-specification:'Charter BT';fill:#ffffff;stroke-width:2.84076452"
         id="path3719"
         inkscape:connector-curvature="0" />
      <path
         d="m -107.72088,50.86534 h 37.174067 v 6.602559 l -6.935461,0.443869 -1.276124,1.664511 17.421876,46.939201 17.144459,-46.939201 -1.387092,-1.664511 -7.157396,-0.443869 V 50.86534 h 28.074744 v 6.602559 l -8.045134,1.553543 -25.577978,68.078478 h -15.258013 l -26.132815,-68.41138 -8.045133,-1.220641 z"
         style="font-style:normal;font-variant:normal;font-weight:normal;font-stretch:normal;font-family:'Charter BT';-inkscape-font-specification:'Charter BT';fill:#ffffff;stroke-width:2.84076452"
         id="path3721"
         inkscape:connector-curvature="0" />
      <path
         d="m 5.5213123,91.867783 h 1.5535432 q 8.2115855,0 12.0954435,-4.161276 3.939341,-4.21676 3.939341,-12.983182 0,-7.434814 -3.495472,-11.707058 Q 16.17418,58.68854 10.181942,58.68854 H 5.5213123 Z M -24.162459,127.09992 v -6.60256 l 7.268363,-0.44387 2.163864,-2.16386 V 59.576279 l -1.442576,-1.664511 -7.989651,-0.443869 V 50.86534 h 36.841167 q 15.923817,0 23.857984,5.659336 7.934166,5.659336 7.934166,17.033491 0,12.872215 -8.211585,19.530257 -8.156101,6.602558 -24.024435,6.602558 -2.7187004,0 -4.1057925,-0.05548 -1.3870921,-0.05548 -2.6077332,-0.166451 v 18.420579 l 1.6645105,2.16386 8.4335202,0.44387 v 6.60256 z"
         style="font-style:normal;font-variant:normal;font-weight:normal;font-stretch:normal;font-family:'Charter BT';-inkscape-font-specification:'Charter BT';fill:#ffffff;stroke-width:2.84076452"
         id="path3723"
         inkscape:connector-curvature="0" />
      <path
         d="m 86.582964,127.09992 v -6.60256 l 7.601264,-0.44387 1.830962,-2.16386 V 59.576279 L 94.184228,57.911768 86.582964,57.467899 V 50.86534 h 62.530116 v 18.97542 h -9.65417 l -1.83096,-10.09803 -1.60902,-1.276125 h -20.19606 v 25.245076 h 11.92899 l 1.66451,-1.609026 1.16516,-8.156102 h 8.04513 v 27.908297 h -8.04513 l -1.16516,-8.156106 -1.66451,-1.609026 h -11.92899 v 27.408942 h 23.74701 l 1.55355,-1.83096 2.05289,-12.5948 h 9.43223 v 22.02702 z"
         style="font-style:normal;font-variant:normal;font-weight:normal;font-stretch:normal;font-family:'Charter BT';-inkscape-font-specification:'Charter BT';fill:#ffffff;stroke-width:2.84076452"
         id="path3725"
         inkscape:connector-curvature="0" />
      <path
         d="m 155.49372,50.86534 h 37.17407 v 6.602559 l -6.93546,0.443869 -1.27613,1.664511 17.42188,46.939201 17.14446,-46.939201 -1.3871,-1.664511 -7.15739,-0.443869 V 50.86534 h 28.07474 v 6.602559 l -8.04513,1.553543 -25.57798,68.078478 h -15.25801 l -26.13282,-68.41138 -8.04513,-1.220641 z"
         style="font-style:normal;font-variant:normal;font-weight:normal;font-stretch:normal;font-family:'Charter BT';-inkscape-font-specification:'Charter BT';fill:#ffffff;stroke-width:2.84076452"
         id="path3727"
         inkscape:connector-curvature="0" />
      <path
         d="m 239.05214,127.09992 v -6.60256 l 7.60127,-0.44387 1.83096,-2.16386 V 59.576279 l -1.83096,-1.664511 -7.60127,-0.443869 V 50.86534 h 62.53011 v 18.97542 h -9.65416 l -1.83096,-10.09803 -1.60903,-1.276125 h -20.19606 v 25.245076 h 11.92899 l 1.66452,-1.609026 1.16515,-8.156102 h 8.04514 v 27.908297 h -8.04514 l -1.16515,-8.156106 -1.66452,-1.609026 h -11.92899 v 27.408942 h 23.74702 l 1.55354,-1.83096 2.0529,-12.5948 h 9.43222 v 22.02702 z"
         style="font-style:normal;font-variant:normal;font-weight:normal;font-stretch:normal;font-family:'Charter BT';-inkscape-font-specification:'Charter BT';fill:#ffffff;stroke-width:2.84076452"
         id="path3729"
         inkscape:connector-curvature="0" />
      <path
         d="m 312.95643,127.09992 v -6.38062 l 6.93546,-0.66581 2.16386,-2.16386 V 59.576279 l -1.49806,-1.664511 -7.60126,-0.443869 V 50.86534 H 345.026 v 3.051603 l 32.56892,50.545637 V 60.075632 l -1.99741,-2.163864 -7.43482,-1.05419 V 50.86534 h 28.79603 v 5.992238 l -6.71352,1.05419 -2.16386,2.163864 V 127.09992 H 369.99365 L 332.37572,69.174956 v 48.714674 l 1.60902,2.16386 7.60127,0.66581 v 6.38062 z"
         style="font-style:normal;font-variant:normal;font-weight:normal;font-stretch:normal;font-family:'Charter BT';-inkscape-font-specification:'Charter BT';fill:#ffffff;stroke-width:2.84076452"
         id="path3731"
         inkscape:connector-curvature="0" />
      <path
         d="m 401.06448,50.86534 h 69.85395 v 22.803795 h -9.54319 l -2.3858,-13.70447 -2.05289,-1.387092 h -10.76384 v 59.312057 l 2.16387,2.16386 7.49029,0.44387 v 6.60256 h -39.7818 v -6.60256 l 7.60127,-0.44387 2.16386,-2.16386 V 58.577573 h -10.98577 l -1.94193,1.387092 -2.27483,13.70447 h -9.54319 z"
         style="font-style:normal;font-variant:normal;font-weight:normal;font-stretch:normal;font-family:'Charter BT';-inkscape-font-specification:'Charter BT';fill:#ffffff;stroke-width:2.84076452"
         id="path3733"
         inkscape:connector-curvature="0" />
    </g>
  </g>
</svg>
